<mxfile host="app.diagrams.net" modified="2022-10-24T11:22:50.996Z" agent="5.0 (Macintosh; Intel Mac OS X 10_15_7) AppleWebKit/605.1.15 (KHTML, like Gecko) Version/16.1 Safari/605.1.15" etag="ta7anZt96Q3yKfLe0fzI" version="20.5.1" type="github">
  <diagram name="Page-1" id="e7e014a7-5840-1c2e-5031-d8a46d1fe8dd">
    <mxGraphModel dx="1474" dy="825" grid="1" gridSize="10" guides="1" tooltips="1" connect="1" arrows="1" fold="1" page="1" pageScale="1" pageWidth="1169" pageHeight="826" background="none" math="0" shadow="0">
      <root>
        <mxCell id="0" />
        <mxCell id="1" parent="0" />
        <mxCell id="2" value="Заказчик" style="swimlane;whiteSpace=wrap" parent="1" vertex="1">
          <mxGeometry x="165" y="128" width="280" height="672" as="geometry" />
        </mxCell>
        <mxCell id="oyNCakyuiSarMe_D5ybY-43" value="" style="edgeStyle=orthogonalEdgeStyle;rounded=0;orthogonalLoop=1;jettySize=auto;html=1;" edge="1" parent="2" source="5" target="oyNCakyuiSarMe_D5ybY-42">
          <mxGeometry relative="1" as="geometry" />
        </mxCell>
        <mxCell id="5" value="" style="ellipse;shape=startState;fillColor=#000000;strokeColor=#ff0000;" parent="2" vertex="1">
          <mxGeometry x="100" y="40" width="30" height="30" as="geometry" />
        </mxCell>
        <mxCell id="oyNCakyuiSarMe_D5ybY-42" value="Запрос всех ресторанов" style="rounded=0;whiteSpace=wrap;html=1;" vertex="1" parent="2">
          <mxGeometry x="55.5" y="92" width="120" height="60" as="geometry" />
        </mxCell>
        <mxCell id="oyNCakyuiSarMe_D5ybY-46" value="Выбор подходящего&lt;br&gt;Ресторана" style="whiteSpace=wrap;html=1;fillColor=rgb(255, 255, 255);strokeColor=rgb(0, 0, 0);fontColor=rgb(0, 0, 0);rounded=0;" vertex="1" parent="2">
          <mxGeometry x="55" y="182" width="120" height="60" as="geometry" />
        </mxCell>
        <mxCell id="oyNCakyuiSarMe_D5ybY-59" value="" style="edgeStyle=orthogonalEdgeStyle;rounded=0;orthogonalLoop=1;jettySize=auto;html=1;" edge="1" parent="2" source="oyNCakyuiSarMe_D5ybY-54" target="oyNCakyuiSarMe_D5ybY-58">
          <mxGeometry relative="1" as="geometry" />
        </mxCell>
        <mxCell id="oyNCakyuiSarMe_D5ybY-54" value="Заказ" style="whiteSpace=wrap;html=1;fillColor=rgb(255, 255, 255);strokeColor=rgb(0, 0, 0);fontColor=rgb(0, 0, 0);rounded=0;" vertex="1" parent="2">
          <mxGeometry x="65.5" y="332" width="120" height="60" as="geometry" />
        </mxCell>
        <mxCell id="oyNCakyuiSarMe_D5ybY-60" style="edgeStyle=orthogonalEdgeStyle;rounded=0;orthogonalLoop=1;jettySize=auto;html=1;entryX=0;entryY=0.5;entryDx=0;entryDy=0;" edge="1" parent="2" source="oyNCakyuiSarMe_D5ybY-58" target="oyNCakyuiSarMe_D5ybY-46">
          <mxGeometry relative="1" as="geometry">
            <Array as="points">
              <mxPoint x="36" y="478" />
              <mxPoint x="36" y="342" />
              <mxPoint x="35" y="342" />
              <mxPoint x="35" y="212" />
            </Array>
          </mxGeometry>
        </mxCell>
        <mxCell id="oyNCakyuiSarMe_D5ybY-61" value="Нет" style="edgeLabel;html=1;align=center;verticalAlign=middle;resizable=0;points=[];" vertex="1" connectable="0" parent="oyNCakyuiSarMe_D5ybY-60">
          <mxGeometry x="-0.0794" y="2" relative="1" as="geometry">
            <mxPoint x="1" as="offset" />
          </mxGeometry>
        </mxCell>
        <mxCell id="oyNCakyuiSarMe_D5ybY-58" value="Подтверждение&lt;br&gt;Заказа" style="rhombus;whiteSpace=wrap;html=1;fillColor=rgb(255, 255, 255);strokeColor=rgb(0, 0, 0);fontColor=rgb(0, 0, 0);rounded=0;" vertex="1" parent="2">
          <mxGeometry x="73.25" y="422" width="104.5" height="92" as="geometry" />
        </mxCell>
        <mxCell id="oyNCakyuiSarMe_D5ybY-74" value="Получение" style="whiteSpace=wrap;html=1;fillColor=rgb(255, 255, 255);strokeColor=rgb(0, 0, 0);fontColor=rgb(0, 0, 0);rounded=0;" vertex="1" parent="2">
          <mxGeometry x="65.5" y="532" width="120" height="60" as="geometry" />
        </mxCell>
        <mxCell id="3" value="Приложение" style="swimlane;whiteSpace=wrap" parent="1" vertex="1">
          <mxGeometry x="445" y="128" width="280" height="672" as="geometry" />
        </mxCell>
        <mxCell id="38" value="" style="ellipse;shape=endState;fillColor=#000000;strokeColor=#ff0000" parent="3" vertex="1">
          <mxGeometry x="115.5" y="622" width="30" height="30" as="geometry" />
        </mxCell>
        <mxCell id="oyNCakyuiSarMe_D5ybY-44" value="Показ всех ресторанов" style="rounded=0;whiteSpace=wrap;html=1;" vertex="1" parent="3">
          <mxGeometry x="70.5" y="92" width="120" height="60" as="geometry" />
        </mxCell>
        <mxCell id="oyNCakyuiSarMe_D5ybY-48" value="Проверка блюд&lt;br&gt;на доступность" style="whiteSpace=wrap;html=1;fillColor=rgb(255, 255, 255);strokeColor=rgb(0, 0, 0);fontColor=rgb(0, 0, 0);rounded=0;" vertex="1" parent="3">
          <mxGeometry x="75.5" y="252" width="120" height="60" as="geometry" />
        </mxCell>
        <mxCell id="oyNCakyuiSarMe_D5ybY-52" value="Детальное меню" style="whiteSpace=wrap;html=1;fillColor=rgb(255, 255, 255);strokeColor=rgb(0, 0, 0);fontColor=rgb(0, 0, 0);rounded=0;" vertex="1" parent="3">
          <mxGeometry x="80" y="332" width="120" height="60" as="geometry" />
        </mxCell>
        <mxCell id="oyNCakyuiSarMe_D5ybY-64" value="Оплата" style="whiteSpace=wrap;html=1;fillColor=rgb(255, 255, 255);strokeColor=rgb(0, 0, 0);fontColor=rgb(0, 0, 0);rounded=0;" vertex="1" parent="3">
          <mxGeometry x="75.5" y="452" width="120" height="60" as="geometry" />
        </mxCell>
        <mxCell id="oyNCakyuiSarMe_D5ybY-71" value="Доставка" style="whiteSpace=wrap;html=1;fillColor=rgb(255, 255, 255);strokeColor=rgb(0, 0, 0);fontColor=rgb(0, 0, 0);rounded=0;" vertex="1" parent="3">
          <mxGeometry x="75" y="532" width="120" height="60" as="geometry" />
        </mxCell>
        <mxCell id="4" value="Ресторан" style="swimlane;whiteSpace=wrap" parent="1" vertex="1">
          <mxGeometry x="724.5" y="128" width="280" height="672" as="geometry" />
        </mxCell>
        <mxCell id="oyNCakyuiSarMe_D5ybY-50" value="Доступное меню" style="whiteSpace=wrap;html=1;fillColor=rgb(255, 255, 255);strokeColor=rgb(0, 0, 0);fontColor=rgb(0, 0, 0);rounded=0;" vertex="1" parent="4">
          <mxGeometry x="75.5" y="252" width="120" height="60" as="geometry" />
        </mxCell>
        <mxCell id="oyNCakyuiSarMe_D5ybY-69" value="Готовка&lt;br&gt;Заказа" style="whiteSpace=wrap;html=1;fillColor=rgb(255, 255, 255);strokeColor=rgb(0, 0, 0);fontColor=rgb(0, 0, 0);rounded=0;" vertex="1" parent="4">
          <mxGeometry x="80" y="452" width="120" height="60" as="geometry" />
        </mxCell>
        <mxCell id="oyNCakyuiSarMe_D5ybY-45" style="edgeStyle=orthogonalEdgeStyle;rounded=0;orthogonalLoop=1;jettySize=auto;html=1;" edge="1" parent="1" source="oyNCakyuiSarMe_D5ybY-42" target="oyNCakyuiSarMe_D5ybY-44">
          <mxGeometry relative="1" as="geometry" />
        </mxCell>
        <mxCell id="oyNCakyuiSarMe_D5ybY-47" value="" style="edgeStyle=orthogonalEdgeStyle;rounded=0;orthogonalLoop=1;jettySize=auto;html=1;" edge="1" parent="1" source="oyNCakyuiSarMe_D5ybY-44" target="oyNCakyuiSarMe_D5ybY-46">
          <mxGeometry relative="1" as="geometry">
            <Array as="points">
              <mxPoint x="540" y="340" />
            </Array>
          </mxGeometry>
        </mxCell>
        <mxCell id="oyNCakyuiSarMe_D5ybY-49" style="edgeStyle=orthogonalEdgeStyle;rounded=0;orthogonalLoop=1;jettySize=auto;html=1;" edge="1" parent="1" source="oyNCakyuiSarMe_D5ybY-46" target="oyNCakyuiSarMe_D5ybY-48">
          <mxGeometry relative="1" as="geometry">
            <Array as="points">
              <mxPoint x="280" y="400" />
            </Array>
          </mxGeometry>
        </mxCell>
        <mxCell id="oyNCakyuiSarMe_D5ybY-51" style="edgeStyle=orthogonalEdgeStyle;rounded=0;orthogonalLoop=1;jettySize=auto;html=1;" edge="1" parent="1" source="oyNCakyuiSarMe_D5ybY-48" target="oyNCakyuiSarMe_D5ybY-50">
          <mxGeometry relative="1" as="geometry" />
        </mxCell>
        <mxCell id="oyNCakyuiSarMe_D5ybY-53" style="edgeStyle=orthogonalEdgeStyle;rounded=0;orthogonalLoop=1;jettySize=auto;html=1;" edge="1" parent="1" source="oyNCakyuiSarMe_D5ybY-50" target="oyNCakyuiSarMe_D5ybY-52">
          <mxGeometry relative="1" as="geometry">
            <Array as="points">
              <mxPoint x="860" y="490" />
            </Array>
          </mxGeometry>
        </mxCell>
        <mxCell id="oyNCakyuiSarMe_D5ybY-55" style="edgeStyle=orthogonalEdgeStyle;rounded=0;orthogonalLoop=1;jettySize=auto;html=1;" edge="1" parent="1" source="oyNCakyuiSarMe_D5ybY-52" target="oyNCakyuiSarMe_D5ybY-54">
          <mxGeometry relative="1" as="geometry" />
        </mxCell>
        <mxCell id="oyNCakyuiSarMe_D5ybY-67" style="edgeStyle=orthogonalEdgeStyle;rounded=0;orthogonalLoop=1;jettySize=auto;html=1;entryX=0;entryY=0.25;entryDx=0;entryDy=0;" edge="1" parent="1" source="oyNCakyuiSarMe_D5ybY-58" target="oyNCakyuiSarMe_D5ybY-64">
          <mxGeometry relative="1" as="geometry" />
        </mxCell>
        <mxCell id="oyNCakyuiSarMe_D5ybY-68" value="Да" style="edgeLabel;html=1;align=center;verticalAlign=middle;resizable=0;points=[];" vertex="1" connectable="0" parent="oyNCakyuiSarMe_D5ybY-67">
          <mxGeometry x="-0.099" y="-5" relative="1" as="geometry">
            <mxPoint as="offset" />
          </mxGeometry>
        </mxCell>
        <mxCell id="oyNCakyuiSarMe_D5ybY-70" style="edgeStyle=orthogonalEdgeStyle;rounded=0;orthogonalLoop=1;jettySize=auto;html=1;" edge="1" parent="1" source="oyNCakyuiSarMe_D5ybY-64" target="oyNCakyuiSarMe_D5ybY-69">
          <mxGeometry relative="1" as="geometry" />
        </mxCell>
        <mxCell id="oyNCakyuiSarMe_D5ybY-72" style="edgeStyle=orthogonalEdgeStyle;rounded=0;orthogonalLoop=1;jettySize=auto;html=1;" edge="1" parent="1" source="oyNCakyuiSarMe_D5ybY-69" target="oyNCakyuiSarMe_D5ybY-71">
          <mxGeometry relative="1" as="geometry">
            <Array as="points">
              <mxPoint x="865" y="690" />
            </Array>
          </mxGeometry>
        </mxCell>
        <mxCell id="oyNCakyuiSarMe_D5ybY-76" style="edgeStyle=orthogonalEdgeStyle;rounded=0;orthogonalLoop=1;jettySize=auto;html=1;entryX=1;entryY=0.5;entryDx=0;entryDy=0;" edge="1" parent="1" source="oyNCakyuiSarMe_D5ybY-71" target="oyNCakyuiSarMe_D5ybY-74">
          <mxGeometry relative="1" as="geometry" />
        </mxCell>
        <mxCell id="oyNCakyuiSarMe_D5ybY-77" style="edgeStyle=orthogonalEdgeStyle;rounded=0;orthogonalLoop=1;jettySize=auto;html=1;" edge="1" parent="1" source="oyNCakyuiSarMe_D5ybY-74" target="38">
          <mxGeometry relative="1" as="geometry">
            <Array as="points">
              <mxPoint x="291" y="760" />
            </Array>
          </mxGeometry>
        </mxCell>
        <mxCell id="oyNCakyuiSarMe_D5ybY-78" value="END" style="edgeLabel;html=1;align=center;verticalAlign=middle;resizable=0;points=[];" vertex="1" connectable="0" parent="oyNCakyuiSarMe_D5ybY-77">
          <mxGeometry x="-0.0446" y="3" relative="1" as="geometry">
            <mxPoint x="1" as="offset" />
          </mxGeometry>
        </mxCell>
        <mxCell id="oyNCakyuiSarMe_D5ybY-79" value="Activity Diagram" style="text;html=1;strokeColor=none;fillColor=none;align=center;verticalAlign=middle;whiteSpace=wrap;rounded=0;" vertex="1" parent="1">
          <mxGeometry x="480" y="40" width="210" height="30" as="geometry" />
        </mxCell>
      </root>
    </mxGraphModel>
  </diagram>
</mxfile>
